<svg width="315" height="315" viewBox="0 0 315 315" fill="none" xmlns="http://www.w3.org/2000/svg">
<g clip-path="url(#clip0)">
<path d="M157.326 0C70.576 0 0 70.576 0 157.326C0 244.076 70.576 314.652 157.326 314.652C244.076 314.652 314.652 244.076 314.652 157.326C314.652 70.576 244.076 0 157.326 0ZM157.326 296.652C80.501 296.652 18 234.15 18 157.326C18 80.502 80.501 18 157.326 18C234.151 18 296.652 80.502 296.652 157.326C296.652 234.15 234.151 296.652 157.326 296.652Z" fill="white"/>
<path d="M193.764 71.952H172.43C154.969 71.952 140.763 86.158 140.763 103.619V127.619H120.888C115.917 127.619 111.888 131.648 111.888 136.619C111.888 141.59 115.917 145.619 120.888 145.619H140.763V228.952C140.763 233.923 144.792 237.952 149.763 237.952C154.734 237.952 158.763 233.923 158.763 228.952V145.619H189.513C194.484 145.619 198.513 141.59 198.513 136.619C198.513 131.648 194.484 127.619 189.513 127.619H158.763V103.619C158.763 96.083 164.894 89.952 172.43 89.952H193.763C198.734 89.952 202.763 85.923 202.763 80.952C202.763 75.981 198.734 71.952 193.764 71.952Z" fill="white"/>
</g>
<defs>
<clipPath id="clip0">
<rect width="314.652" height="314.652" fill="white"/>
</clipPath>
</defs>
</svg>
