<svg width="512" height="512" viewBox="0 0 512 512" fill="none" xmlns="http://www.w3.org/2000/svg">
<path d="M437.019 74.981C388.667 26.628 324.379 0 256 0C187.621 0 123.333 26.628 74.981 74.981C26.628 123.333 0 187.621 0 256C0 324.379 26.628 388.667 74.981 437.019C123.333 485.372 187.621 512 256 512C324.379 512 388.667 485.372 437.019 437.019C485.371 388.666 512 324.379 512 256C512 187.621 485.372 123.333 437.019 74.981ZM256 495.832C123.756 495.832 16.168 388.244 16.168 256C16.168 123.756 123.756 16.168 256 16.168C388.244 16.168 495.832 123.756 495.832 256C495.832 388.244 388.244 495.832 256 495.832Z" fill="white"/>
<path d="M436.352 162.391C433.919 160.287 430.394 159.928 427.477 161.281C423.294 163.221 419.02 164.925 414.671 166.388C418.984 160.504 422.429 153.966 424.859 146.956C425.861 144.065 425.362 140.78 423.29 138.529C420.697 135.715 416.567 135.123 413.327 136.969C401.512 143.702 388.769 148.275 375.396 150.587C360.438 136.858 341.195 129.347 320.753 129.347C278.44 129.347 243.606 161.989 240.105 203.412C231.364 202.048 214.261 197.171 210.172 195.834C180.591 185.759 153.944 168.02 133.097 144.527C131.861 143.134 130.233 142.098 128.402 141.763C124.722 141.091 121.231 142.949 119.657 146.102C114.476 156.485 111.848 167.65 111.848 179.287C111.848 195.38 116.886 210.548 125.961 223.017C123.133 222.486 120.123 223.479 118.149 225.907C117.014 227.303 116.446 229.075 116.379 230.873C116.349 231.693 116.322 232.516 116.322 233.345C116.322 255.162 126.312 274.991 142.458 287.933C141.343 288.688 140.403 289.73 139.755 291.015C138.792 292.919 138.685 295.158 139.321 297.193C146.373 319.752 163.893 336.932 185.613 343.974C165.94 355.95 143.184 362.408 119.934 362.408C117.881 362.408 115.768 362.355 113.655 362.252C109.609 362.067 105.98 364.891 105.284 368.996C104.716 372.345 106.446 375.694 109.371 377.419C139.089 394.948 173.105 404.211 207.761 404.211C249.122 404.211 288.519 391.33 321.368 367.486C325.42 364.544 325.867 358.665 322.327 355.124L322.324 355.121C319.472 352.269 314.986 351.962 311.719 354.328C282.444 375.526 246.512 388.042 207.76 388.042C186.041 388.042 164.598 384.074 144.505 376.432C168.808 372.164 191.78 361.624 210.914 345.72C213.226 343.798 214.443 340.758 213.861 337.809C213.117 334.042 209.889 331.379 206.154 331.274C186.468 330.716 168.894 319.839 159.456 303.214C163.957 302.998 168.462 302.382 172.896 301.373C176.278 300.603 179.015 297.901 179.455 294.46C179.984 290.318 177.321 286.535 173.37 285.563C152.253 280.363 136.723 263.199 133.23 242.307C139.42 243.758 145.854 244.399 152.277 244.203C156.24 244.084 159.594 241.094 160.069 237.037C160.443 233.841 158.746 230.746 155.999 229.071C138.47 218.389 128.014 199.799 128.014 179.288C128.014 174.274 128.637 169.371 129.873 164.623C151.066 185.577 176.787 201.545 204.959 211.141C205.217 211.229 233.052 219.895 243.595 219.938C244.283 219.955 247.57 220.1 247.575 220.1C250.963 220.237 254.248 218.181 255.528 214.774C255.896 213.796 256.03 212.744 256.005 211.7C255.994 211.229 255.982 210.758 255.982 210.284C255.982 174.571 285.037 145.516 320.751 145.516C338.238 145.516 354.629 152.388 366.909 164.864C368.686 166.671 371.191 167.561 373.702 167.213C381.929 166.072 389.958 164.188 397.739 161.581C393.597 166.125 388.714 170.018 383.237 173.085C379.545 175.152 377.979 179.643 379.719 183.5L379.838 183.764C381.262 186.916 384.529 188.809 387.974 188.484C394.661 187.846 401.256 186.745 407.727 185.193C402.002 191.097 395.707 196.46 388.878 201.244C386.65 202.805 385.369 205.391 385.462 208.109L385.479 208.62C385.498 209.173 385.519 209.727 385.519 210.284V211.015C385.333 256.305 368.058 297.669 339.851 329.009C336.969 332.21 337.149 337.126 340.195 340.172C343.507 343.484 348.915 343.323 352.05 339.84C383.741 304.632 401.274 259.66 401.683 211.938C416.105 201.195 428.278 188.062 437.91 172.845C440.029 169.5 439.434 165.057 436.352 162.391Z" fill="white"/>
</svg>
